<svg width="70" height="29" viewBox="0 0 70 29" fill="none" xmlns="http://www.w3.org/2000/svg">
<path d="M12.32 0.0400085H0.759971C0.719971 0.0400085 0.719971 0.0800104 0.719971 0.12001C0.719971 0.160009 0.719971 0.200009 0.759971 0.200009C1.87997 0.200009 2.79997 1.12001 2.79997 2.24001V14.08V25.92C2.79997 27.04 1.87997 27.96 0.759971 27.96C0.719971 27.96 0.719971 27.96 0.719971 28C0.719971 28.08 0.719971 28.08 0.759971 28.08H2.87997H4.75997H6.87997C6.91997 28.08 6.95997 28.08 6.95997 28C6.95997 27.96 6.91997 27.96 6.87997 27.96C5.75997 27.96 4.83997 27.04 4.83997 25.92V15.96C4.83997 15.16 4.31997 14.44 3.59997 14.16H12.28C12.28 14.16 12.28 14.16 12.32 14.16C16.36 14.16 19.68 11 19.68 7.08001C19.68 3.20001 16.4 0.0800104 12.32 0.0400085ZM12.32 14H4.83997V2.00001C4.83997 1.20001 4.31997 0.48001 3.59997 0.200009H12.28C12.28 0.200009 12.28 0.200009 12.32 0.200009C15.16 0.200009 12.32 2.7 12.32 6.5C12.32 10.34 15.16 14 12.32 14Z" fill="black"/>
<path d="M41.9243 27.96C41.8443 27.96 41.7643 27.96 41.6443 27.92C40.3243 27.84 39.1243 27.08 38.4843 25.88L32.8443 16.4H32.8043C32.0443 15.24 30.8443 14.44 29.5243 14.16H31.3643C31.3643 14.16 31.3643 14.16 31.4043 14.16C35.4443 14.16 38.7643 11 38.7643 7.08001C38.7643 3.20001 35.4843 0.0800104 31.4043 0.0400085H19.8443C19.8043 0.0400085 19.8043 0.0800104 19.8043 0.12001C19.8043 0.160009 19.8043 0.200009 19.8443 0.200009C20.9643 0.200009 21.8843 1.12001 21.8843 2.24001V14.08V25.92C21.8843 27.04 20.9643 27.96 19.8443 27.96C19.8043 27.96 19.8043 27.96 19.8043 28C19.8043 28.08 19.8043 28.08 19.8443 28.08H21.9643H23.8443H25.9643C26.0043 28.08 26.0443 28.08 26.0443 28C26.0443 27.96 26.0043 27.96 25.9643 27.96C24.8443 27.96 23.9243 27.04 23.9243 25.92V15.96C23.9243 15.16 23.4043 14.44 22.6843 14.16H28.2843C28.8043 14.16 29.2443 14.4 29.5643 14.8L35.0043 24.04C36.3643 26.48 38.8443 28 41.6443 28.08C41.7643 28.08 41.8443 28.08 41.9243 28.08C41.9643 28.08 42.0043 28.08 42.0043 28.04C42.0043 27.96 41.9643 27.96 41.9243 27.96ZM22.6843 0.200009H31.3643C31.3643 0.200009 31.3643 0.200009 31.4043 0.200009C34.2444 0.200009 31.3643 3.28001 31.3643 7.08001C31.3643 10.92 34.2444 14 31.4043 14H23.9243V2.00001C23.9243 1.20001 23.4043 0.48001 22.6843 0.200009Z" fill="black"/>
<path d="M69.3747 27.96C68.2547 27.96 67.3747 27.04 67.3747 25.92V2.24001C67.3747 1.12001 68.2547 0.200009 69.3747 0.200009C69.4147 0.200009 69.4547 0.160009 69.4547 0.12001C69.4547 0.0800104 69.4147 0.0400085 69.3747 0.0400085H65.4147C65.3747 0.0400085 65.3747 0.0400085 65.3747 0.0400085C65.3747 0.0800104 65.3747 0.0800104 65.3747 0.0800104C65.3347 0.0800104 65.3347 0.0800104 65.3347 0.0800104C65.3347 0.0800104 65.3347 0.0800104 65.3347 0.12001L55.7747 25.64L57.4796 21.5L46.2147 0.0800104C46.2147 0.0800104 46.1747 0.0400085 46.1347 0.0400085H44.1347H42.0147C41.9747 0.0400085 41.9747 0.0800104 41.9747 0.12001C41.9747 0.160009 41.9747 0.200009 42.0147 0.200009C42.7347 0.200009 43.4947 0.560009 44.0547 1.08001V25.92C44.0547 27.04 43.1347 27.96 42.0147 27.96C41.9747 27.96 41.9747 27.96 41.9747 28C41.9747 28.08 41.9747 28.08 42.0147 28.08H46.2547C46.2947 28.08 46.2947 28.08 46.2947 28C46.2947 27.96 46.2947 27.96 46.2547 27.96C45.1347 27.96 44.2147 27.04 44.2147 25.92V1.24001C44.4947 1.56001 44.7347 1.88001 44.8547 2.24001L54.6947 28.56C54.6947 28.6 54.7347 28.6 54.7347 28.6H54.7747C54.8147 28.6 54.8147 28.6 54.8147 28.56L55.8547 25.84L65.3347 0.52001V25.92C65.3347 27.04 64.4147 27.96 63.2947 27.96C63.2547 27.96 63.2147 27.96 63.2147 28C63.2147 28.08 63.2547 28.08 63.2947 28.08H69.3747C69.4147 28.08 69.4547 28.08 69.4547 28C69.4547 27.96 69.4147 27.96 69.3747 27.96Z" fill="black"/>
</svg>
